<svg xmlns="http://www.w3.org/2000/svg" width="50" height="50" viewBox="0 0 50 50" fill="none">
    <g filter="url(#filter0_b_1743_1724)">
        <rect width="50" height="50" rx="25" fill="#313036" fill-opacity="0.3"/>
        <rect width="50" height="50" rx="25" fill="url(#paint0_linear_1743_1724)"/>
        <rect x="0.561798" y="0.561798" width="48.8764" height="48.8764" rx="24.4382" stroke="url(#paint1_linear_1743_1724)" stroke-width="1.1236"/>
    </g>
    <g filter="url(#filter1_b_1743_1724)">
        <path d="M37.6564 25.0434C37.2126 23.8619 36.6048 22.2423 36.6048 21.4442C36.6048 19.413 37.2645 17.1562 38.285 15.696C38.7341 15.0555 38.6754 14.2041 38.1434 13.625L35.4909 10.736C34.9039 10.0955 33.9161 9.97267 33.1821 10.4472C32.8419 10.6646 31.6538 11.0795 29.6023 11.0795C27.4575 11.0795 26.171 10.5816 25.9448 10.4008C25.292 9.86313 24.3077 9.8697 23.6411 10.4008C23.4149 10.5817 22.1284 11.0795 19.9836 11.0795C17.9321 11.0795 16.744 10.6646 16.4038 10.4472C15.6664 9.97267 14.6822 10.0955 14.095 10.736L11.4425 13.625C10.9106 14.2041 10.8519 15.0555 11.3009 15.696C12.3215 17.1563 12.9812 19.413 12.9812 21.4442C12.9812 22.2207 12.3767 23.8371 11.9364 25.0169C11.3562 26.5684 11.0005 27.5608 11.0005 28.3772C11.0005 31.8621 13.2748 34.4657 17.3796 35.7003C19.5313 36.3807 21.6622 37.6949 23.5428 39.5021C23.8882 39.834 24.3407 40 24.793 40C25.2454 40 25.6979 39.834 26.0432 39.5021C27.9238 37.695 30.0547 36.3807 32.1823 35.707C36.3112 34.4658 38.5855 31.8622 38.5855 28.3774C38.5855 27.5624 38.2315 26.58 37.6564 25.0434ZM28.7026 25.2724L27.6537 25.5999L28.302 26.4572C28.877 27.2172 28.7009 28.2793 27.9116 28.8302C27.1145 29.3857 26.0112 29.2095 25.4422 28.4551L24.7929 27.5964L24.1436 28.4552C23.5749 29.2094 22.4716 29.386 21.6742 28.8303C20.885 28.2794 20.7089 27.2173 21.2838 26.4573L21.9321 25.6L20.8832 25.2725C19.9542 24.9821 19.4448 24.023 19.7469 23.1319C20.0508 22.2391 21.0508 21.7529 21.9745 22.04L23.0245 22.3679V21.308C23.0245 20.3688 23.8154 19.6088 24.7928 19.6088C25.7702 19.6088 26.5611 20.3688 26.5611 21.308V22.3678L27.611 22.0398C28.5367 21.7511 29.5365 22.2373 29.8387 23.1318C30.141 24.0229 29.6316 24.982 28.7026 25.2724Z" fill="url(#paint2_linear_1743_1724)"/>
    </g>
    <defs>
        <filter id="filter0_b_1743_1724" x="-2.24719" y="-2.24719" width="54.4944" height="54.4944" filterUnits="userSpaceOnUse" color-interpolation-filters="sRGB">
            <feFlood flood-opacity="0" result="BackgroundImageFix"/>
            <feGaussianBlur in="BackgroundImageFix" stdDeviation="1.1236"/>
            <feComposite in2="SourceAlpha" operator="in" result="effect1_backgroundBlur_1743_1724"/>
            <feBlend mode="normal" in="SourceGraphic" in2="effect1_backgroundBlur_1743_1724" result="shape"/>
        </filter>
        <filter id="filter1_b_1743_1724" x="7.80576" y="6.80576" width="33.9744" height="36.3885" filterUnits="userSpaceOnUse" color-interpolation-filters="sRGB">
            <feFlood flood-opacity="0" result="BackgroundImageFix"/>
            <feGaussianBlur in="BackgroundImageFix" stdDeviation="1.59712"/>
            <feComposite in2="SourceAlpha" operator="in" result="effect1_backgroundBlur_1743_1724"/>
            <feBlend mode="normal" in="SourceGraphic" in2="effect1_backgroundBlur_1743_1724" result="shape"/>
        </filter>
        <linearGradient id="paint0_linear_1743_1724" x1="2.46132" y1="2.7752" x2="25" y2="26" gradientUnits="userSpaceOnUse">
            <stop stop-color="#B1B1B1" stop-opacity="0.32"/>
            <stop offset="1" stop-color="#363567" stop-opacity="0.2"/>
        </linearGradient>
        <linearGradient id="paint1_linear_1743_1724" x1="-10.5333" y1="-3.60222" x2="3.01291" y2="60.1977" gradientUnits="userSpaceOnUse">
            <stop stop-color="white" stop-opacity="0.2"/>
            <stop offset="1" stop-color="white" stop-opacity="0"/>
        </linearGradient>
        <linearGradient id="paint2_linear_1743_1724" x1="24.793" y1="10" x2="24.793" y2="40" gradientUnits="userSpaceOnUse">
            <stop stop-color="#EF2424"/>
            <stop offset="1" stop-color="#FF7676"/>
        </linearGradient>
    </defs>
</svg>