<svg xmlns="http://www.w3.org/2000/svg" width="84" height="67" viewBox="0 0 84 67" fill="none">
    <g filter="url(#filter0_b_1704_12192)">
        <rect width="89" height="89" rx="44.5" fill="#313036" fill-opacity="0.3"/>
        <rect width="89" height="89" rx="44.5" fill="url(#paint0_linear_1704_12192)"/>
        <rect x="1" y="1" width="87" height="87" rx="43.5" stroke="url(#paint1_linear_1704_12192)" stroke-width="2"/>
    </g>
    <path d="M26.1729 62.4152C26.1731 63.0174 26.0536 63.6136 25.8215 64.17C25.5894 64.7263 25.249 65.2318 24.82 65.6576C24.3909 66.0833 23.8816 66.4211 23.321 66.6514C22.7604 66.8818 22.1595 67.0003 21.5528 67.0002C20.946 67.0005 20.3452 66.882 19.7846 66.6517C19.224 66.4213 18.7146 66.0836 18.2856 65.6578C17.8566 65.232 17.5164 64.7264 17.2844 64.17C17.0524 63.6137 16.9332 63.0174 16.9336 62.4152V54.8012C16.9249 54.1936 17.0379 53.5904 17.2661 53.0266C17.4944 52.4628 17.8333 51.9497 18.2631 51.517C18.693 51.0843 19.2052 50.7407 19.77 50.5062C20.3348 50.2716 20.941 50.1509 21.5533 50.1509C22.1655 50.1509 22.7717 50.2716 23.3365 50.5062C23.9013 50.7407 24.4135 51.0843 24.8434 51.517C25.2732 51.9497 25.6121 52.4628 25.8404 53.0266C26.0686 53.5904 26.1817 54.1936 26.1729 54.8012V62.4152ZM72.726 62.4152C72.7263 63.0173 72.607 63.6136 72.3749 64.1699C72.1429 64.7262 71.8027 65.2317 71.3737 65.6575C70.9447 66.0833 70.4354 66.421 69.8749 66.6514C69.3143 66.8818 68.7135 67.0003 68.1068 67.0002C67.5001 67.0003 66.8992 66.8818 66.3386 66.6514C65.778 66.4211 65.2687 66.0833 64.8396 65.6576C64.4106 65.2318 64.0703 64.7263 63.8381 64.17C63.606 63.6136 63.4865 63.0174 63.4867 62.4152V54.8012C63.478 54.1936 63.591 53.5904 63.8192 53.0266C64.0475 52.4628 64.3864 51.9497 64.8162 51.517C65.2461 51.0843 65.7583 50.7407 66.3231 50.5062C66.8879 50.2716 67.4941 50.1509 68.1063 50.1509C68.7186 50.1509 69.3248 50.2716 69.8896 50.5062C70.4544 50.7407 70.9666 51.0843 71.3965 51.517C71.8263 51.9497 72.1652 52.4628 72.3935 53.0266C72.6217 53.5904 72.7347 54.1936 72.726 54.8012V62.4152Z" fill="url(#paint2_linear_1704_12192)"/>
    <g filter="url(#filter1_bd_1704_12192)">
        <path d="M70.5506 40.8815C70.5506 47.5706 64.0006 46.2147 55.9193 46.2147H34.0789C25.9995 46.2147 19.4486 47.5706 19.4486 40.8815L21.5407 34.1069C21.5407 27.4216 28.0916 22 36.171 22H53.8264C61.9086 22 68.4585 27.4207 68.4585 34.1069L70.5506 40.8815Z" fill="url(#paint3_linear_1704_12192)"/>
        <path d="M21.5885 34.1217L21.5907 34.1145V34.1069C21.5907 27.4577 28.1099 22.0501 36.171 22.0501H53.8264C61.8902 22.0501 68.4085 27.4568 68.4085 34.1069V34.1145L68.4107 34.1217L70.5005 40.8891C70.4993 42.5492 70.0922 43.7028 69.3638 44.5031C68.6338 45.3053 67.5746 45.7597 66.2562 46.0073C64.9376 46.2549 63.3656 46.2946 61.6154 46.272C60.9206 46.263 60.1972 46.2442 59.4508 46.2248C58.3199 46.1954 57.1362 46.1646 55.9193 46.1646H34.0789C32.8624 46.1646 31.679 46.1954 30.5483 46.2248C29.8019 46.2442 29.0786 46.263 28.3838 46.272C26.6338 46.2946 25.0618 46.2549 23.7432 46.0073C22.4248 45.7597 21.3656 45.3053 20.6355 44.5031C19.9071 43.7028 19.4999 42.5492 19.4987 40.8891L21.5885 34.1217Z" stroke="url(#paint4_linear_1704_12192)" stroke-opacity="0.5" stroke-width="0.100146"/>
    </g>
    <path d="M69.1487 42.5286C69.1487 48.8491 62.9569 47.5677 55.3239 47.5677H34.6753C27.0413 47.5677 20.8505 48.8491 20.8505 42.5286L22.8281 36.1252C22.8281 29.8066 29.0199 24.6855 36.6529 24.6855H53.3415C60.9755 24.6855 67.1663 29.8075 67.1663 36.1252L69.1458 42.5286" fill="url(#paint5_linear_1704_12192)"/>
    <path d="M48.0077 39.3535C42.7452 36.8335 34.2157 31.3867 32.827 25.1416C27.0544 26.5161 22.8271 30.9075 22.8271 36.1271L20.8495 42.5305C20.8495 48.851 27.0403 47.5696 34.6743 47.5696H55.3229C61.5315 47.5696 66.7884 48.4164 68.5353 45.3288C61.3909 44.1544 54.3852 42.403 48.0152 39.3535" fill="url(#paint6_linear_1704_12192)"/>
    <path d="M75 48.0842C75 55.0263 67.3116 60.6508 57.8266 60.6508H32.1734C22.6912 60.6508 15 55.0301 15 48.0842C15 41.1448 22.6912 35.5176 32.1734 35.5176H57.8266C67.3116 35.5176 75 41.1476 75 48.0842Z" fill="url(#paint7_linear_1704_12192)"/>
    <g filter="url(#filter2_b_1704_12192)">
        <path d="M67.2075 58.6089C67.2075 60.4561 65.4793 61.9478 63.346 61.9478H25.4143C23.2772 61.9478 21.5527 60.4561 21.5527 58.6089C21.5527 56.7636 23.2772 55.269 25.4143 55.269H63.346C65.4793 55.269 67.2075 56.7636 67.2075 58.6089Z" fill="url(#paint8_linear_1704_12192)"/>
        <path d="M67.1574 58.6089C67.1574 60.4219 65.4587 61.8978 63.346 61.8978H25.4143C23.2978 61.8978 21.6028 60.4219 21.6028 58.6089C21.6028 56.7978 23.2978 55.3191 25.4143 55.3191H63.346C65.4587 55.3191 67.1574 56.7978 67.1574 58.6089Z" stroke="url(#paint9_linear_1704_12192)" stroke-opacity="0.5" stroke-width="0.100146"/>
    </g>
    <path d="M30.3102 48.0839C30.3102 50.0567 28.8417 51.6545 27.0272 51.6545H22.1229C20.3084 51.6545 18.8372 50.0567 18.8372 48.0839C18.8372 46.112 20.3084 44.5142 22.1229 44.5142H27.0263C28.8408 44.5142 30.3102 46.112 30.3102 48.0839ZM70.5505 48.0839C70.5505 50.0567 69.0821 51.6545 67.2676 51.6545H62.3642C60.5497 51.6545 59.0785 50.0567 59.0785 48.0839C59.0785 46.112 60.5497 44.5142 62.3642 44.5142H67.2676C69.0821 44.5142 70.5505 46.112 70.5505 48.0839Z" fill="#E4E4E4"/>
    <defs>
        <filter id="filter0_b_1704_12192" x="-4" y="-4" width="97" height="97" filterUnits="userSpaceOnUse" color-interpolation-filters="sRGB">
            <feFlood flood-opacity="0" result="BackgroundImageFix"/>
            <feGaussianBlur in="BackgroundImageFix" stdDeviation="2"/>
            <feComposite in2="SourceAlpha" operator="in" result="effect1_backgroundBlur_1704_12192"/>
            <feBlend mode="normal" in="SourceGraphic" in2="effect1_backgroundBlur_1704_12192" result="shape"/>
        </filter>
        <filter id="filter1_bd_1704_12192" x="11.9376" y="14.489" width="66.1239" height="39.3496" filterUnits="userSpaceOnUse" color-interpolation-filters="sRGB">
            <feFlood flood-opacity="0" result="BackgroundImageFix"/>
            <feGaussianBlur in="BackgroundImageFix" stdDeviation="3.75549"/>
            <feComposite in2="SourceAlpha" operator="in" result="effect1_backgroundBlur_1704_12192"/>
            <feColorMatrix in="SourceAlpha" type="matrix" values="0 0 0 0 0 0 0 0 0 0 0 0 0 0 0 0 0 0 127 0" result="hardAlpha"/>
            <feOffset dx="1.89672" dy="1.89672"/>
            <feGaussianBlur stdDeviation="1.89672"/>
            <feColorMatrix type="matrix" values="0 0 0 0 0.978727 0 0 0 0 0.978727 0 0 0 0 0.978727 0 0 0 0.21 0"/>
            <feBlend mode="normal" in2="effect1_backgroundBlur_1704_12192" result="effect2_dropShadow_1704_12192"/>
            <feBlend mode="normal" in="SourceGraphic" in2="effect2_dropShadow_1704_12192" result="shape"/>
        </filter>
        <filter id="filter2_b_1704_12192" x="14.0418" y="47.7581" width="60.6767" height="21.7007" filterUnits="userSpaceOnUse" color-interpolation-filters="sRGB">
            <feFlood flood-opacity="0" result="BackgroundImageFix"/>
            <feGaussianBlur in="BackgroundImageFix" stdDeviation="3.75549"/>
            <feComposite in2="SourceAlpha" operator="in" result="effect1_backgroundBlur_1704_12192"/>
            <feBlend mode="normal" in="SourceGraphic" in2="effect1_backgroundBlur_1704_12192" result="shape"/>
        </filter>
        <linearGradient id="paint0_linear_1704_12192" x1="4.38115" y1="4.93986" x2="44.5" y2="46.28" gradientUnits="userSpaceOnUse">
            <stop stop-color="#B1B1B1" stop-opacity="0.32"/>
            <stop offset="1" stop-color="#363567" stop-opacity="0.2"/>
        </linearGradient>
        <linearGradient id="paint1_linear_1704_12192" x1="-18.7493" y1="-6.41195" x2="5.36297" y2="107.152" gradientUnits="userSpaceOnUse">
            <stop stop-color="white" stop-opacity="0.2"/>
            <stop offset="1" stop-color="white" stop-opacity="0"/>
        </linearGradient>
        <linearGradient id="paint2_linear_1704_12192" x1="44.8298" y1="50.1509" x2="44.8298" y2="67.0002" gradientUnits="userSpaceOnUse">
            <stop/>
            <stop offset="1" stop-color="#0D1015"/>
        </linearGradient>
        <linearGradient id="paint3_linear_1704_12192" x1="66.9275" y1="26.3931" x2="7.07843" y2="9.00973" gradientUnits="userSpaceOnUse">
            <stop stop-color="white"/>
            <stop offset="0.760063" stop-color="white" stop-opacity="0.61"/>
        </linearGradient>
        <linearGradient id="paint4_linear_1704_12192" x1="24.9534" y1="30.1607" x2="53.1891" y2="58.2538" gradientUnits="userSpaceOnUse">
            <stop stop-color="white"/>
            <stop offset="1" stop-color="white" stop-opacity="0"/>
        </linearGradient>
        <linearGradient id="paint5_linear_1704_12192" x1="53.7899" y1="32.2047" x2="19.3488" y2="28.1043" gradientUnits="userSpaceOnUse">
            <stop stop-color="#BBD2C5"/>
            <stop offset="1" stop-color="#536976"/>
        </linearGradient>
        <linearGradient id="paint6_linear_1704_12192" x1="53.3713" y1="32.5122" x2="19.3738" y2="28.4354" gradientUnits="userSpaceOnUse">
            <stop stop-color="#BBD2C5"/>
            <stop offset="1" stop-color="#536976"/>
        </linearGradient>
        <linearGradient id="paint7_linear_1704_12192" x1="63.1081" y1="46.0464" x2="28.0552" y2="71.4193" gradientUnits="userSpaceOnUse">
            <stop stop-color="#22A7FF"/>
            <stop offset="1" stop-color="#2567FF"/>
        </linearGradient>
        <linearGradient id="paint8_linear_1704_12192" x1="63.9706" y1="56.4751" x2="33.3484" y2="27.5309" gradientUnits="userSpaceOnUse">
            <stop stop-color="white"/>
            <stop offset="0.760063" stop-color="white" stop-opacity="0.61"/>
        </linearGradient>
        <linearGradient id="paint9_linear_1704_12192" x1="26.4707" y1="57.5095" x2="30.8421" y2="71.663" gradientUnits="userSpaceOnUse">
            <stop stop-color="white"/>
            <stop offset="1" stop-color="white" stop-opacity="0"/>
        </linearGradient>
    </defs>
</svg>