<svg xmlns="http://www.w3.org/2000/svg" width="84" height="67" viewBox="0 0 84 67" fill="none">
    <g filter="url(#filter0_b_1704_12173)">
        <rect width="89" height="89" rx="44.5" fill="#313036" fill-opacity="0.3"/>
        <rect width="89" height="89" rx="44.5" fill="url(#paint0_linear_1704_12173)"/>
        <rect x="1" y="1" width="87" height="87" rx="43.5" stroke="url(#paint1_linear_1704_12173)" stroke-width="2"/>
    </g>
    <mask id="mask0_1704_12173" style="mask-type:alpha" maskUnits="userSpaceOnUse" x="0" y="0" width="89" height="89">
        <rect width="89" height="89" rx="44.5" fill="#313036" fill-opacity="0.3"/>
        <rect width="89" height="89" rx="44.5" fill="url(#paint2_linear_1704_12173)"/>
    </mask>
    <g mask="url(#mask0_1704_12173)">
        <path fill-rule="evenodd" clip-rule="evenodd" d="M34.5236 17.0266C38.324 17.9236 40.6777 21.7316 39.7807 25.532C38.8837 29.3324 35.0757 31.6861 31.2753 30.7892C27.4749 29.8922 25.1212 26.0842 26.0182 22.2838C26.9152 18.4833 30.7232 16.1296 34.5236 17.0266ZM35.8938 32.5171C38.4972 33.0427 40.9798 34.049 43.2143 35.4844L44.0017 36.0897L41.4613 37.7099V64.0777C41.4613 64.9451 41.1168 65.7771 40.5036 66.3906C39.8903 67.0042 39.0584 67.3492 38.1909 67.3497H27.3289C26.4614 67.3492 25.6295 67.0042 25.0162 66.3906C24.403 65.7771 24.0585 64.9451 24.0585 64.0777V58.6198L24.6124 59.599C24.7916 59.9815 25.0464 60.3239 25.3613 60.6055C25.6763 60.887 26.045 61.1019 26.4452 61.2373C26.8455 61.3726 27.2689 61.4256 27.6902 61.3931C28.1114 61.3605 28.5217 61.2431 28.8964 61.0478C29.271 60.8526 29.6023 60.5836 29.8703 60.2569C30.1382 59.9303 30.3373 59.5529 30.4556 59.1473C30.5738 58.7418 30.6088 58.3165 30.5584 57.8971C30.5079 57.4777 30.3731 57.0728 30.1621 56.7068L25.5819 47.967C25.5726 47.9401 25.5576 47.9155 25.5379 47.8949C25.5182 47.8743 25.4943 47.8582 25.4678 47.8477C25.4413 47.8372 25.4128 47.8325 25.3843 47.834C25.3559 47.8356 25.3281 47.8432 25.3028 47.8565C25.2776 47.8697 25.2555 47.8883 25.2381 47.9109C25.2207 47.9335 25.2084 47.9595 25.2021 47.9873C25.1957 48.0151 25.1954 48.0439 25.2012 48.0718C25.207 48.0997 25.2187 48.1261 25.2357 48.149L29.8139 56.8888C29.9806 57.2077 30.0828 57.5563 30.1147 57.9147C30.1467 58.2731 30.1077 58.6342 30.0001 58.9776C29.8924 59.3209 29.7182 59.6396 29.4873 59.9156C29.2564 60.1916 28.9734 60.4195 28.6545 60.5861C28.3356 60.7528 27.9869 60.855 27.6285 60.8869C27.2701 60.9188 26.9089 60.8799 26.5655 60.7722C26.2221 60.6646 25.9033 60.4904 25.6273 60.2595C25.3512 60.0287 25.1234 59.7458 24.9567 59.4269L22.0285 54.2578L20.1964 50.7642C16.8211 44.3211 19.1459 36.9364 25.5799 33.5418C28.7712 31.8642 34.129 32.1867 35.8938 32.5171Z" fill="url(#paint3_linear_1704_12173)"/>
        <path fill-rule="evenodd" clip-rule="evenodd" d="M61.9283 21.2081C63.4122 24.8005 61.7028 28.9157 58.1103 30.3995C54.5179 31.8834 50.4027 30.174 48.9189 26.5816C47.435 22.9891 49.1444 18.8739 52.7369 17.3901C56.3293 15.9063 60.4445 17.6156 61.9283 21.2081ZM41.4019 44.5954V37.6946L44.9618 35.486C47.2397 34.05 49.7705 33.0433 52.4245 32.5175C54.2236 32.187 59.6956 31.8644 62.9388 33.5426C69.4979 36.9386 71.8679 44.3262 68.4269 50.7719L66.5693 54.249L63.5822 59.4102C63.4123 59.7292 63.18 60.0123 62.8986 60.2432C62.6172 60.4742 62.2922 60.6484 61.9422 60.7561C61.5921 60.8638 61.2239 60.9028 60.8585 60.8708C60.4931 60.8389 60.1377 60.7367 59.8126 60.5699C59.4874 60.4032 59.199 60.1753 58.9636 59.8992C58.7282 59.6231 58.5506 59.3042 58.4409 58.9607C58.3311 58.6173 58.2914 58.256 58.3239 57.8974C58.3565 57.5389 58.4607 57.1902 58.6306 56.8712L63.2978 48.1279C63.3151 48.105 63.3271 48.0786 63.333 48.0507C63.3389 48.0228 63.3386 47.994 63.3321 47.9662C63.3256 47.9384 63.3131 47.9123 63.2953 47.8897C63.2776 47.8671 63.2551 47.8485 63.2294 47.8353C63.2037 47.822 63.1753 47.8144 63.1463 47.8128C63.1173 47.8113 63.0883 47.816 63.0613 47.8265C63.0342 47.837 63.0099 47.8531 62.9898 47.8737C62.9697 47.8943 62.9544 47.9189 62.9449 47.9458L58.2756 56.6891C57.8827 57.4252 57.804 58.2843 58.0566 59.0775C58.3093 59.8706 58.8727 60.5327 59.623 60.9182C60.3732 61.3038 61.2488 61.3811 62.0571 61.1331C62.8654 60.8852 63.5403 60.3324 63.9332 59.5963L64.4979 58.6167V64.0767C64.4979 64.9445 64.1467 65.7768 63.5215 66.3906C62.8964 67.0044 62.0483 67.3495 61.1639 67.35H50.0909C49.2064 67.3495 48.3584 67.0044 47.7332 66.3906C47.1081 65.7768 46.7568 64.9445 46.7569 64.0767L46.7024 41.3716L41.4019 44.5954Z" fill="url(#paint4_linear_1704_12173)"/>
        <g filter="url(#filter1_di_1704_12173)">
            <path fill-rule="evenodd" clip-rule="evenodd" d="M49.8514 41.0261C49.8514 44.0773 47.3779 46.5508 44.3267 46.5508C41.2755 46.5508 38.8021 44.0773 38.8021 41.0261C38.8021 37.9749 41.2755 35.5015 44.3267 35.5015C47.3779 35.5015 49.8514 37.9749 49.8514 41.0261ZM52.7262 71.2967C52.7262 72.7059 51.8332 73.849 50.7333 73.849L37.9261 73.8409C36.8263 73.8409 35.9333 72.6999 35.9333 71.2886L38.6164 52.6582C38.0091 53.0714 37.4937 53.6019 37.1014 54.2175C36.7092 54.833 36.4483 55.5207 36.3347 56.2387L34.9706 63.8191C34.9168 64.1152 34.8043 64.398 34.6395 64.6513C34.4747 64.9047 34.2608 65.1236 34.01 65.2955C33.7592 65.4675 33.4765 65.5891 33.178 65.6535C32.8795 65.7179 32.571 65.7238 32.2701 65.6709C31.9693 65.6179 31.682 65.5071 31.4246 65.3449C31.1673 65.1827 30.9449 64.9721 30.7702 64.7253C30.5955 64.4784 30.4719 64.2002 30.4065 63.9063C30.3411 63.6125 30.3351 63.3088 30.3889 63.0127L31.753 55.4323C32.5907 50.7792 36.2262 47.5999 40.6973 47.237C40.8049 47.2136 40.9148 47.2015 41.025 47.2007H47.6283C47.7385 47.2015 47.8484 47.2136 47.956 47.237C52.4272 47.5999 56.0627 50.7792 56.9004 55.4323L58.2644 63.0127C58.3182 63.3088 58.3122 63.6125 58.2468 63.9063C58.1814 64.2002 58.0578 64.4784 57.8831 64.7253C57.7084 64.9721 57.4861 65.1827 57.2287 65.3449C56.9713 65.5071 56.684 65.6179 56.3832 65.6709C56.0824 65.7238 55.7739 65.7179 55.4753 65.6535C55.1768 65.5891 54.8941 65.4675 54.6433 65.2955C54.3926 65.1236 54.1787 64.9047 54.0138 64.6513C53.849 64.398 53.7365 64.1152 53.6827 63.8191L52.3186 56.2387C52.206 55.5214 51.9464 54.8341 51.5556 54.2186C51.1647 53.603 50.6508 53.0722 50.0451 52.6582L52.7262 71.2967Z" fill="url(#paint5_radial_1704_12173)"/>
        </g>
    </g>
    <defs>
        <filter id="filter0_b_1704_12173" x="-4" y="-4" width="97" height="97" filterUnits="userSpaceOnUse" color-interpolation-filters="sRGB">
            <feFlood flood-opacity="0" result="BackgroundImageFix"/>
            <feGaussianBlur in="BackgroundImageFix" stdDeviation="2"/>
            <feComposite in2="SourceAlpha" operator="in" result="effect1_backgroundBlur_1704_12173"/>
            <feBlend mode="normal" in="SourceGraphic" in2="effect1_backgroundBlur_1704_12173" result="shape"/>
        </filter>
        <filter id="filter1_di_1704_12173" x="8.40735" y="-12.7779" width="98.1728" height="108.572" filterUnits="userSpaceOnUse" color-interpolation-filters="sRGB">
            <feFlood flood-opacity="0" result="BackgroundImageFix"/>
            <feColorMatrix in="SourceAlpha" type="matrix" values="0 0 0 0 0 0 0 0 0 0 0 0 0 0 0 0 0 0 127 0" result="hardAlpha"/>
            <feOffset dx="13.1671" dy="-13.1671"/>
            <feGaussianBlur stdDeviation="17.5562"/>
            <feColorMatrix type="matrix" values="0 0 0 0 1 0 0 0 0 0.670588 0 0 0 0 0.282353 0 0 0 0.2 0"/>
            <feBlend mode="normal" in2="BackgroundImageFix" result="effect1_dropShadow_1704_12173"/>
            <feBlend mode="normal" in="SourceGraphic" in2="effect1_dropShadow_1704_12173" result="shape"/>
            <feColorMatrix in="SourceAlpha" type="matrix" values="0 0 0 0 0 0 0 0 0 0 0 0 0 0 0 0 0 0 127 0" result="hardAlpha"/>
            <feOffset dx="-21.9452" dy="21.9452"/>
            <feGaussianBlur stdDeviation="21.9452"/>
            <feComposite in2="hardAlpha" operator="arithmetic" k2="-1" k3="1"/>
            <feColorMatrix type="matrix" values="0 0 0 0 1 0 0 0 0 1 0 0 0 0 1 0 0 0 0.24 0"/>
            <feBlend mode="normal" in2="shape" result="effect2_innerShadow_1704_12173"/>
        </filter>
        <linearGradient id="paint0_linear_1704_12173" x1="4.38115" y1="4.93986" x2="44.5" y2="46.28" gradientUnits="userSpaceOnUse">
            <stop stop-color="#B1B1B1" stop-opacity="0.32"/>
            <stop offset="1" stop-color="#363567" stop-opacity="0.2"/>
        </linearGradient>
        <linearGradient id="paint1_linear_1704_12173" x1="-18.7493" y1="-6.41195" x2="5.36297" y2="107.152" gradientUnits="userSpaceOnUse">
            <stop stop-color="white" stop-opacity="0.2"/>
            <stop offset="1" stop-color="white" stop-opacity="0"/>
        </linearGradient>
        <linearGradient id="paint2_linear_1704_12173" x1="4.38115" y1="4.93986" x2="44.5" y2="46.28" gradientUnits="userSpaceOnUse">
            <stop stop-color="#B1B1B1" stop-opacity="0.32"/>
            <stop offset="1" stop-color="#363567" stop-opacity="0.2"/>
        </linearGradient>
        <linearGradient id="paint3_linear_1704_12173" x1="38.9777" y1="46.9552" x2="17.4423" y2="51.6711" gradientUnits="userSpaceOnUse">
            <stop stop-color="#22A7FF"/>
            <stop offset="1" stop-color="#2567FF"/>
        </linearGradient>
        <linearGradient id="paint4_linear_1704_12173" x1="41.4019" y1="49.801" x2="70.0001" y2="49.801" gradientUnits="userSpaceOnUse">
            <stop stop-color="#FF6F6F"/>
            <stop offset="1" stop-color="#FE5196"/>
            <stop offset="1" stop-color="#FF0066"/>
        </linearGradient>
        <radialGradient id="paint5_radial_1704_12173" cx="0" cy="0" r="1" gradientUnits="userSpaceOnUse" gradientTransform="translate(36.8021 45.1509) rotate(62.328) scale(18.517 19.0396)">
            <stop stop-color="#FFE974"/>
            <stop offset="1" stop-color="#FFAB48"/>
        </radialGradient>
    </defs>
</svg>