<svg xmlns="http://www.w3.org/2000/svg" width="84" height="67" viewBox="0 0 84 67" fill="none">
    <g filter="url(#filter0_b_1704_12216)">
        <rect width="89" height="89" rx="44.5" fill="#313036" fill-opacity="0.3"/>
        <rect width="89" height="89" rx="44.5" fill="url(#paint0_linear_1704_12216)"/>
        <rect x="1" y="1" width="87" height="87" rx="43.5" stroke="url(#paint1_linear_1704_12216)" stroke-width="2"/>
    </g>
    <g filter="url(#filter1_b_1704_12216)">
        <path fill-rule="evenodd" clip-rule="evenodd" d="M48.3904 19.7234C49.0874 20.4705 50.2704 20.6081 51.1364 20.038C52.8263 18.9174 55.0232 20.6081 54.1571 22.3382L49.0452 27.7841H40.8703L35.7161 22.2793C34.85 20.5295 37.0469 18.8387 38.7368 19.9593L38.8847 20.0577C39.7507 20.6278 40.9337 20.4705 41.6096 19.7234L43.4474 17.6788C43.6367 17.4664 43.874 17.2955 44.1423 17.1781C44.4107 17.0608 44.7035 17 45 17C45.2965 17 45.5893 17.0608 45.8577 17.1781C46.126 17.2955 46.3633 17.4664 46.5526 17.6788L48.3904 19.7234ZM20 54.7973C20 41.9395 31.1956 31.5196 45.0105 31.5196C58.8255 31.5196 70.0211 41.9395 70 54.7973C70 64.2932 61.7195 72 51.5167 72H38.4833C28.2805 72 20 64.2932 20 54.7973Z" fill="url(#paint2_linear_1704_12216)"/>
    </g>
    <path fill-rule="evenodd" clip-rule="evenodd" d="M41.3773 27.7449H48.6439C49.9325 27.7449 50.9886 28.7279 50.9886 29.9272C50.9886 31.1264 49.9325 32.1094 48.6439 32.1094H41.3773C40.0888 32.1094 39.0326 31.1264 39.0326 29.9272C39.0326 28.7279 40.0888 27.7449 41.3773 27.7449ZM45.0106 51.1012H45.1585C48.3271 51.1799 50.8619 53.5784 50.8619 56.5275C50.8619 59.044 49.0241 61.1476 46.5315 61.7767V63.9787C46.5315 64.7651 45.8556 65.3942 45.0106 65.3942C44.1657 65.3942 43.4897 64.7651 43.4897 63.9787V61.7767C42.2485 61.4661 41.1518 60.7837 40.3691 59.8349C39.5864 58.886 39.1612 57.7237 39.1593 56.5275C39.1593 55.7411 39.8353 55.1119 40.6802 55.1119C41.5252 55.1119 42.2012 55.7411 42.2012 56.5275C42.2012 57.9823 43.4475 59.1423 44.9895 59.1423C46.5315 59.1423 47.799 57.9627 47.799 56.5275C47.799 55.0923 46.5315 53.9127 44.9895 53.9127H44.8416C43.322 53.8743 41.8784 53.286 40.8173 52.2728C39.7563 51.2596 39.1615 49.9013 39.1593 48.4864C39.1593 45.9699 40.9971 43.8663 43.4897 43.2371V41.0352C43.4897 40.2488 44.1657 39.6197 45.0106 39.6197C45.8556 39.6197 46.5315 40.2488 46.5315 41.0352V43.2371C49.0241 43.8663 50.8619 45.9699 50.8619 48.4864C50.8619 49.2728 50.1859 49.902 49.341 49.902C48.496 49.902 47.8201 49.2728 47.8201 48.4864C47.8201 47.0512 46.5527 45.8716 45.0106 45.8716C43.4686 45.8716 42.2012 47.0512 42.2012 48.4864C42.2012 49.9216 43.4686 51.1012 45.0106 51.1012Z" fill="url(#paint3_linear_1704_12216)"/>
    <path d="M46.4992 61.6488L46.3995 61.6739V61.7767V63.9787C46.3995 64.6834 45.7918 65.2622 45.0106 65.2622C44.2295 65.2622 43.6217 64.6834 43.6217 63.9787V61.7767V61.6737L43.5218 61.6487C42.3068 61.3446 41.2349 60.677 40.4709 59.7509C39.7071 58.8249 39.2932 57.692 39.2913 56.5274C39.2914 55.8227 39.8992 55.2439 40.6802 55.2439C41.4614 55.2439 42.0692 55.8227 42.0692 56.5275C42.0692 58.0634 43.383 59.2743 44.9895 59.2743C46.5953 59.2743 47.931 58.0443 47.931 56.5275C47.931 55.0106 46.5953 53.7807 44.9895 53.7807H44.8433C43.3558 53.7427 41.9445 53.1666 40.9085 52.1773C39.8724 51.188 39.2935 49.8637 39.2913 48.4863C39.2914 46.0382 41.08 43.9815 43.522 43.3651L43.6217 43.34V43.2371V41.0352C43.6217 40.3305 44.2295 39.7517 45.0106 39.7517C45.7918 39.7517 46.3995 40.3305 46.3995 41.0352V43.2371V43.34L46.4992 43.3651C48.9412 43.9815 50.7299 46.0383 50.7299 48.4864C50.7299 49.1912 50.1221 49.77 49.341 49.77C48.5599 49.77 47.9521 49.1912 47.9521 48.4864C47.9521 46.9696 46.6165 45.7396 45.0106 45.7396C43.4048 45.7396 42.0692 46.9696 42.0692 48.4864C42.0692 50.0033 43.4048 51.2332 45.0106 51.2332H45.1568C48.2626 51.3111 50.7299 53.6597 50.7299 56.5275C50.7299 58.9756 48.9412 61.0324 46.4992 61.6488ZM41.3773 27.8769H48.6439C49.8686 27.8769 50.8566 28.8096 50.8566 29.9272C50.8566 31.0448 49.8686 31.9774 48.6439 31.9774H41.3773C40.1526 31.9774 39.1646 31.0448 39.1646 29.9272C39.1646 28.8096 40.1526 27.8769 41.3773 27.8769Z" stroke="url(#paint4_linear_1704_12216)" stroke-opacity="0.5" stroke-width="0.263998"/>
    <defs>
        <filter id="filter0_b_1704_12216" x="-4" y="-4" width="97" height="97" filterUnits="userSpaceOnUse" color-interpolation-filters="sRGB">
            <feFlood flood-opacity="0" result="BackgroundImageFix"/>
            <feGaussianBlur in="BackgroundImageFix" stdDeviation="2"/>
            <feComposite in2="SourceAlpha" operator="in" result="effect1_backgroundBlur_1704_12216"/>
            <feBlend mode="normal" in="SourceGraphic" in2="effect1_backgroundBlur_1704_12216" result="shape"/>
        </filter>
        <filter id="filter1_b_1704_12216" x="12.6966" y="9.69663" width="64.6067" height="69.6067" filterUnits="userSpaceOnUse" color-interpolation-filters="sRGB">
            <feFlood flood-opacity="0" result="BackgroundImageFix"/>
            <feGaussianBlur in="BackgroundImageFix" stdDeviation="3.65169"/>
            <feComposite in2="SourceAlpha" operator="in" result="effect1_backgroundBlur_1704_12216"/>
            <feBlend mode="normal" in="SourceGraphic" in2="effect1_backgroundBlur_1704_12216" result="shape"/>
        </filter>
        <linearGradient id="paint0_linear_1704_12216" x1="4.38115" y1="4.93986" x2="44.5" y2="46.28" gradientUnits="userSpaceOnUse">
            <stop stop-color="#B1B1B1" stop-opacity="0.32"/>
            <stop offset="1" stop-color="#363567" stop-opacity="0.2"/>
        </linearGradient>
        <linearGradient id="paint1_linear_1704_12216" x1="-18.7493" y1="-6.41195" x2="5.36297" y2="107.152" gradientUnits="userSpaceOnUse">
            <stop stop-color="white" stop-opacity="0.2"/>
            <stop offset="1" stop-color="white" stop-opacity="0"/>
        </linearGradient>
        <linearGradient id="paint2_linear_1704_12216" x1="70" y1="61.4231" x2="9.64572" y2="-39.389" gradientUnits="userSpaceOnUse">
            <stop stop-color="#FF5295"/>
            <stop offset="1" stop-color="#DC1906"/>
        </linearGradient>
        <linearGradient id="paint3_linear_1704_12216" x1="50.141" y1="34.5436" x2="34.9863" y2="33.8782" gradientUnits="userSpaceOnUse">
            <stop stop-color="white"/>
            <stop offset="0.760063" stop-color="white" stop-opacity="0.61"/>
        </linearGradient>
        <linearGradient id="paint4_linear_1704_12216" x1="40.3205" y1="40.3744" x2="53.1754" y2="42.308" gradientUnits="userSpaceOnUse">
            <stop stop-color="white"/>
            <stop offset="1" stop-color="white" stop-opacity="0"/>
        </linearGradient>
    </defs>
</svg>