<svg xmlns="http://www.w3.org/2000/svg" width="50" height="55" viewBox="0 0 50 55" fill="none">
    <g filter="url(#filter0_b_1704_12358)">
        <path d="M48.3153 27.5796C47.5108 25.4135 46.4091 22.4442 46.4091 20.981C46.4091 17.2572 47.6048 13.1197 49.4546 10.4426C50.2685 9.26836 50.1621 7.7076 49.198 6.64591L44.3903 1.34929C43.3262 0.175034 41.5358 -0.0500966 40.2055 0.8199C39.5888 1.21845 37.4354 1.979 33.717 1.979C29.8296 1.979 27.4978 1.06622 27.0877 0.734748C25.9046 -0.25093 24.1204 -0.238884 22.9123 0.734748C22.5022 1.06642 20.1704 1.979 16.283 1.979C12.5646 1.979 10.4112 1.21845 9.79453 0.8199C8.45799 -0.0500966 6.67401 0.175034 5.6097 1.34929L0.801999 6.64591C-0.162104 7.7076 -0.268512 9.26836 0.545377 10.4426C2.39517 13.1199 3.59089 17.2572 3.59089 20.981C3.59089 22.4047 2.49538 25.368 1.6973 27.531C0.645589 30.3755 0.000931432 32.1948 0.000931432 33.6916C0.000931432 40.0805 4.12316 44.8537 11.5631 47.1173C15.4631 48.3646 19.3255 50.774 22.7341 54.0872C23.3601 54.6957 24.1802 55 25.0001 55C25.82 55 26.6403 54.6957 27.2661 54.0872C30.6747 50.7742 34.5371 48.3646 38.3933 47.1295C45.8771 44.8539 49.9993 40.0807 49.9993 33.6918C49.9993 32.1977 49.3576 30.3967 48.3153 27.5796ZM32.0862 27.9994L30.1852 28.5998L31.3602 30.1715C32.4025 31.5649 32.0832 33.512 30.6527 34.5219C29.2078 35.5404 27.208 35.2175 26.1768 33.8343L24.9999 32.26L23.823 33.8345C22.7922 35.2173 20.7924 35.5411 19.3471 34.5222C17.9168 33.5122 17.5975 31.5651 18.6396 30.1717L19.8146 28.6L17.9136 27.9996C16.2296 27.4673 15.3063 25.7088 15.8539 24.0751C16.4048 22.4384 18.2172 21.547 19.8915 22.0732L21.7945 22.6745V20.7314C21.7945 19.0095 23.2281 17.6161 24.9997 17.6161C26.7713 17.6161 28.2048 19.0095 28.2048 20.7314V22.6743L30.1078 22.073C31.7856 21.5436 33.5978 22.435 34.1454 24.0749C34.6935 25.7086 33.7702 27.4671 32.0862 27.9994Z" fill="url(#paint0_linear_1704_12358)"/>
    </g>
    <defs>
        <filter id="filter0_b_1704_12358" x="-3.19424" y="-3.19424" width="56.3885" height="61.3885" filterUnits="userSpaceOnUse" color-interpolation-filters="sRGB">
            <feFlood flood-opacity="0" result="BackgroundImageFix"/>
            <feGaussianBlur in="BackgroundImageFix" stdDeviation="1.59712"/>
            <feComposite in2="SourceAlpha" operator="in" result="effect1_backgroundBlur_1704_12358"/>
            <feBlend mode="normal" in="SourceGraphic" in2="effect1_backgroundBlur_1704_12358" result="shape"/>
        </filter>
        <linearGradient id="paint0_linear_1704_12358" x1="25" y1="0" x2="25" y2="55" gradientUnits="userSpaceOnUse">
            <stop stop-color="#EF2424"/>
            <stop offset="1" stop-color="#FF7676"/>
        </linearGradient>
    </defs>
</svg>