<svg xmlns="http://www.w3.org/2000/svg" width="100" height="100" viewBox="0 0 100 100" fill="none">
    <path d="M31.9939 68.0051C19.5767 55.5875 19.695 44.2942 31.9939 31.9949C44.2927 19.6957 55.5857 19.5774 68.0029 31.9949C80.42 44.4125 80.3017 55.7058 68.0029 68.0051C61.8408 74.1674 55.9238 77.2697 49.9984 77.2781C44.0983 77.2781 38.1898 74.2012 31.9939 68.0051ZM16.9901 16.9907C5.7141 28.2671 0.0253584 39.0871 0 49.9239V50.0676C0.0253584 60.8622 5.66338 71.6822 16.9901 83.0093C28.3169 94.3364 39.1365 99.9746 49.9307 100H50.0744C60.9194 99.9746 71.7305 94.2857 83.0066 83.0093C105.559 60.4565 105.77 39.7464 83.0066 16.9907C71.6545 5.63822 60.8095 9.39236e-06 49.9899 9.39236e-06C39.1281 -0.00844369 28.2915 5.68893 16.9901 16.9907Z" fill="url(#paint0_linear_712_12865)"/>
    <defs>
        <linearGradient id="paint0_linear_712_12865" x1="16.0908" y1="83.7188" x2="82.964" y2="17.2233" gradientUnits="userSpaceOnUse">
            <stop stop-color="#0073FF"/>
            <stop offset="1" stop-color="#00DEFF"/>
        </linearGradient>
    </defs>
</svg>